<?xml version="1.0" encoding="UTF-8"?>
<svg width="127px" height="104px" viewBox="0 0 127 104" version="1.1" xmlns="http://www.w3.org/2000/svg" xmlns:xlink="http://www.w3.org/1999/xlink">
    <!-- Generator: Sketch 46.2 (44496) - http://www.bohemiancoding.com/sketch -->
    <title>OktopusFullLogoVertical</title>
    <desc>Created with Sketch.</desc>
    <defs>
        <linearGradient x1="70.0891439%" y1="30.2828043%" x2="105.016753%" y2="91.8006348%" id="linearGradient-1">
            <stop stop-color="#1ACCAD" offset="0%"></stop>
            <stop stop-color="#51235E" offset="100%"></stop>
        </linearGradient>
        <path d="M54.2122296,16.2212527 C55.4329768,16.2212527 56.4225879,14.4719771 56.4225879,12.3141363 C56.4225879,10.1562955 55.4329768,8.40701984 54.2122296,8.40701984 C52.9914824,8.40701984 52.236981,9.91881593 52.236981,12.0766568 C52.236981,14.2344976 52.9914824,16.2212527 54.2122296,16.2212527 Z" id="path-2"></path>
        <filter x="-22.7%" y="-12.2%" width="145.4%" height="124.3%" filterUnits="objectBoundingBox" id="filter-3">
            <feMorphology radius="0.4" operator="erode" in="SourceAlpha" result="shadowSpreadInner1"></feMorphology>
            <feOffset dx="-1.5" dy="0" in="shadowSpreadInner1" result="shadowOffsetInner1"></feOffset>
            <feComposite in="shadowOffsetInner1" in2="SourceAlpha" operator="arithmetic" k2="-1" k3="1" result="shadowInnerInner1"></feComposite>
            <feColorMatrix values="0 0 0 0 0   0 0 0 0 0   0 0 0 0 0  0 0 0 0.5 0" type="matrix" in="shadowInnerInner1"></feColorMatrix>
        </filter>
        <path d="M62.0524453,33.5532314 C63.5539219,33.5532314 64.5697541,30.8490193 64.5697541,28.2312943 C64.5697541,25.6135693 63.5465082,24.1116076 62.0450316,24.1116076 C60.543555,24.1116076 59.7307787,26.3120076 59.7307787,28.9297326 C59.7307787,31.5474576 60.5509687,33.5532314 62.0524453,33.5532314 Z" id="path-4"></path>
        <filter x="-19.6%" y="-10.1%" width="139.3%" height="120.1%" filterUnits="objectBoundingBox" id="filter-5">
            <feMorphology radius="0.4" operator="erode" in="SourceAlpha" result="shadowSpreadInner1"></feMorphology>
            <feOffset dx="-1.5" dy="0" in="shadowSpreadInner1" result="shadowOffsetInner1"></feOffset>
            <feComposite in="shadowOffsetInner1" in2="SourceAlpha" operator="arithmetic" k2="-1" k3="1" result="shadowInnerInner1"></feComposite>
            <feColorMatrix values="0 0 0 0 0   0 0 0 0 0   0 0 0 0 0  0 0 0 0.5 0" type="matrix" in="shadowInnerInner1"></feColorMatrix>
        </filter>
        <path d="M55.4895056,44.0702712 C56.4552574,44.0702712 57.2323291,42.3418956 57.2323291,40.6274285 C57.2323291,38.9129614 56.4546362,37.8255341 55.4888844,37.8255341 C54.5231327,37.8255341 53.899942,39.2486698 53.899942,40.963137 C53.899942,42.6776041 54.5237539,44.0702712 55.4895056,44.0702712 Z" id="path-6"></path>
        <filter x="-28.5%" y="-15.2%" width="157.0%" height="130.4%" filterUnits="objectBoundingBox" id="filter-7">
            <feMorphology radius="0.4" operator="erode" in="SourceAlpha" result="shadowSpreadInner1"></feMorphology>
            <feOffset dx="-1.5" dy="0" in="shadowSpreadInner1" result="shadowOffsetInner1"></feOffset>
            <feComposite in="shadowOffsetInner1" in2="SourceAlpha" operator="arithmetic" k2="-1" k3="1" result="shadowInnerInner1"></feComposite>
            <feColorMatrix values="0 0 0 0 0   0 0 0 0 0   0 0 0 0 0  0 0 0 0.5 0" type="matrix" in="shadowInnerInner1"></feColorMatrix>
        </filter>
        <linearGradient x1="46.8536272%" y1="-7.32374686%" x2="33.2432601%" y2="132.562359%" id="linearGradient-8">
            <stop stop-color="#FFFFFFFFC8104" offset="0%"></stop>
            <stop stop-color="#51235E" offset="100%"></stop>
        </linearGradient>
        <linearGradient x1="300.728036%" y1="81.7478007%" x2="14.2589544%" y2="14.4444882%" id="linearGradient-9">
            <stop stop-color="#000000" offset="0%"></stop>
            <stop stop-color="#450073" offset="100%"></stop>
        </linearGradient>
        <path d="M48.9727925,28.8163131 C50.4773439,28.8163131 51.5841958,26.9457649 51.5841958,24.2198474 C51.5841958,21.4939298 50.3645158,19.284137 48.8599644,19.284137 C47.355413,19.284137 46.2925514,21.549833 46.2925514,24.2757505 C46.2925514,27.0016681 47.4682411,28.8163131 48.9727925,28.8163131 Z" id="path-10"></path>
        <filter x="-18.0%" y="-10.0%" width="135.9%" height="119.9%" filterUnits="objectBoundingBox" id="filter-11">
            <feMorphology radius="0.4" operator="erode" in="SourceAlpha" result="shadowSpreadInner1"></feMorphology>
            <feOffset dx="-1.5" dy="0" in="shadowSpreadInner1" result="shadowOffsetInner1"></feOffset>
            <feComposite in="shadowOffsetInner1" in2="SourceAlpha" operator="arithmetic" k2="-1" k3="1" result="shadowInnerInner1"></feComposite>
            <feColorMatrix values="0 0 0 0 0   0 0 0 0 0   0 0 0 0 0  0 0 0 0.5 0" type="matrix" in="shadowInnerInner1"></feColorMatrix>
        </filter>
        <polygon id="path-12" points="25.131721 1.00229607 126.100437 1.00229607 126.100437 31.651455 0 31.651455 0 1.00229607 25.131721 1.00229607 0.000294804368 1.00148566 0.000294804368 25.6651115 25.131721 25.6651115"></polygon>
    </defs>
    <g id="UI" stroke="none" stroke-width="1" fill="none" fill-rule="evenodd">
        <g id="Login" transform="translate(-656.000000, -213.000000)">
            <g id="Logo/OktopusFullLogoVertical" transform="translate(654.000000, 211.365343)">
                <g id="Logo/PurpleLogo" transform="translate(33.547522, 0.796028)">
                    <path d="M32.7213064,51.6386883 C42.3157283,51.7493538 51.9525588,39.3901194 41.1980237,31.4193673 C34.2999552,28.5002538 42.6148648,19.5014057 39.8442552,5.88872744 C38.9036284,-4.32940719 64.9646277,14.4995285 64.4377463,31.4193673 C64.7324265,49.4749037 50.2090133,64.152782 33.5485989,64.152782 C16.6626493,64.4869905 1.21874455,51.5432807 0.99243157,32.88691 C0.99243157,14.246762 18.3322687,-0.206800292 35.8741594,1.04943368 C9.07968947,2.54248435 6.74115587,29.5380225 13.719607,39.9424315 C16.3322391,45.7567644 23.1268845,51.5280228 32.7213064,51.6386883 Z" id="Path-2-Copy-2" fill="#450073" fill-rule="evenodd"></path>
                    <path d="M41.1980237,31.4193673 C56.2507739,38.8538205 48.2960129,55.3516804 41.1980237,60.2496624 C34.7142203,64.8723415 26.212695,63.3593228 24.9668916,63.0285292 C20.8716003,61.9411215 17.0107732,60.0905876 13.6327339,57.5896898 C6.21174265,52.0956324 1.12072428,43.462867 0.99243157,32.88691 C0.99243157,14.246762 17.4673351,-0.936160778 36.0149693,1.05016101 C45.6947066,31.0178437 7.89537723,18.0468846 16.3391544,38.8235527 C23.0595729,51.0217666 40.0723726,51.9537223 44.5615116,44.9298066 C46.4984779,41.899139 47.6488991,35.1885477 41.1980237,31.4193673 Z" id="Path-2-Copy" fill="url(#linearGradient-1)" fill-rule="evenodd"></path>
                    <ellipse id="Oval-8-Copy-3" fill="#FFFFFF" fill-rule="evenodd" transform="translate(61.205692, 29.294435) rotate(-11.000000) translate(-61.205692, -29.294435) " cx="61.2056919" cy="29.2944352" rx="3.41790006" ry="5.9813251"></ellipse>
                    <ellipse id="Oval-8-Copy" fill="#FFFFFF" fill-rule="evenodd" transform="translate(53.772995, 13.037307) rotate(-45.000000) translate(-53.772995, -13.037307) " cx="53.7729948" cy="13.037307" rx="2.70438618" ry="4.73267582"></ellipse>
                    <g id="Oval-8-Copy-5" transform="translate(54.329784, 12.314136) rotate(-43.000000) translate(-54.329784, -12.314136) ">
                        <use fill="#35C0B7" fill-rule="evenodd" xlink:href="#path-2"></use>
                        <use fill="black" fill-opacity="1" filter="url(#filter-3)" xlink:href="#path-2"></use>
                    </g>
                    <g id="Oval-8-Copy-7" transform="translate(62.150266, 28.832419) rotate(-13.000000) translate(-62.150266, -28.832419) ">
                        <use fill="#35C0B7" fill-rule="evenodd" xlink:href="#path-4"></use>
                        <use fill="black" fill-opacity="1" filter="url(#filter-5)" xlink:href="#path-4"></use>
                    </g>
                    <ellipse id="Oval-8-Copy-4" fill="#FFFFFF" fill-rule="evenodd" transform="translate(55.058908, 41.143879) rotate(1.000000) translate(-55.058908, -41.143879) " cx="55.0589082" cy="41.1438794" rx="2.26416897" ry="3.96229569"></ellipse>
                    <g id="Oval-8-Copy-8" transform="translate(55.566136, 40.947903) rotate(-1.000000) translate(-55.566136, -40.947903) ">
                        <use fill="#35C0B7" fill-rule="evenodd" xlink:href="#path-6"></use>
                        <use fill="black" fill-opacity="1" filter="url(#filter-7)" xlink:href="#path-6"></use>
                    </g>
                    <path d="M30.0957148,52.5548001 C37.9673051,56.046772 56.1253124,41.2454827 41.1980237,31.4193673 C56.2507739,38.8538205 48.2960129,55.3516804 41.1980237,60.2496624 C34.7142203,64.8723415 26.212695,63.3593228 24.9668916,63.0285292 C20.8716003,61.9411215 17.0107732,60.0905876 13.6327339,57.5896898 C6.21174265,52.0956324 1.12072428,43.462867 0.99243157,32.88691 C0.99243157,14.246762 17.0681797,-0.974272555 35.8607766,1.07445363 C10.8376315,2.39120096 6.74115587,29.5380225 13.719607,39.9424315 C16.3322391,45.7567644 20.5012929,52.4441347 30.0957148,52.5548001 Z" id="Path-2-Copy-3" fill="url(#linearGradient-8)" fill-rule="evenodd" opacity="0.5"></path>
                    <path d="M32.7213064,51.6386883 C42.3157283,51.7493538 51.9525588,39.3901194 41.1980237,31.4193673 C56.2507739,38.8538205 48.2960129,55.3516804 41.1980237,60.2496624 C34.7142203,64.8723415 26.053643,63.4951749 24.8078395,63.1643813 C20.7125482,62.0769737 17.0011852,60.2779873 13.6231459,57.7770895 C6.20215465,52.2830321 1.12072428,43.462867 0.99243157,32.88691 C0.99243157,14.246762 16.7417567,-0.938488215 35.7967721,1.05467042 C11.1327796,1.9216406 6.74115587,29.5380225 13.719607,39.9424315 C16.7885472,44.8664777 23.1268845,51.5280228 32.7213064,51.6386883 Z" id="Path-2-Copy-4" fill="url(#linearGradient-9)" fill-rule="evenodd"></path>
                    <ellipse id="Oval-8-Copy-2" fill="#FFFFFF" fill-rule="evenodd" transform="translate(47.965208, 24.788469) rotate(-19.000000) translate(-47.965208, -24.788469) " cx="47.9652085" cy="24.7884694" rx="3.31282746" ry="5.79744806"></ellipse>
                    <g id="Oval-8-Copy-6" transform="translate(48.938374, 24.050225) rotate(-18.000000) translate(-48.938374, -24.050225) ">
                        <use fill="#35C0B7" fill-rule="evenodd" xlink:href="#path-10"></use>
                        <use fill="black" fill-opacity="1" filter="url(#filter-11)" xlink:href="#path-10"></use>
                    </g>
                </g>
                <g id="Group-3" stroke-width="1" fill-rule="evenodd" transform="translate(0.547522, 70.717438)">
                    <g id="Logo/OktopusLogoText" transform="translate(0.479691, 0.655072)">
                        <g id="Page-1" transform="translate(1.516747, 1.156671)">
                            <g id="Group-3" transform="translate(0.000000, 0.635435)">
                                <path d="M25.1317142,13.349177 C25.124616,20.1683071 19.5205465,25.6651098 12.5713583,25.6651098 C5.61862095,25.6686266 -0.0209398418,20.1331388 0.000354912574,13.328076 C0.021649667,6.49487857 5.66121046,0.973458083 12.592653,1.00159271 C19.5382921,1.02621051 25.1388125,6.54059733 25.1317142,13.349177 Z M12.6462448,6.37038284 C12.284234,6.39851747 11.9932057,6.39851747 11.7057265,6.44071941 C8.51506247,6.91900806 5.93129893,9.84500924 5.84257079,13.045323 C5.78578477,15.032331 6.47076604,16.7415096 7.8158847,18.1693419 C9.64368445,20.1071143 11.8938302,20.8245473 14.4775937,20.0051263 C18.5094005,18.7285176 20.4720671,13.9526647 18.5271462,10.2318604 C17.2849522,7.8544844 15.3187365,6.50753915 12.6462448,6.37038284 Z" id="Combined-Shape" fill="#450073"></path>
                                <mask id="mask-13" fill="white">
                                    <use xlink:href="#path-12"></use>
                                </mask>
                                <g id="Clip-2"></g>
                            </g>
                            <path d="M81.8332568,19.1958481 C82.6460066,20.345851 83.6646057,21.1512047 85.0523139,21.3938658 C86.7842872,21.6927963 88.2216832,21.1054859 89.3503051,19.8007426 C90.4008464,18.5874368 90.5960483,17.1877392 90.0494829,15.7036376 C89.3893455,13.9241225 87.4302281,12.7213672 85.5243476,12.8761076 C83.5119933,13.0413986 81.8226095,14.4973655 81.442853,16.4034864 C81.3612231,16.8290227 81.3541249,17.2580757 81.3541249,17.6941624 C81.357674,21.144171 81.3754196,24.5976965 81.3399284,28.0512219 C81.3221827,30.1085665 79.6008567,31.9478677 77.5423638,32.2292139 C77.0987231,32.2925168 76.6550824,32.2714159 76.2078925,32.2854832 C76.0623784,32.2925168 75.994945,32.2467981 76.0126906,32.0955745 C76.0197889,32.0357884 76.0126906,31.9724855 76.0126906,31.9126994 C76.0126906,27.0383753 76.0126906,22.1675681 76.0126906,17.2967608 C76.0162398,16.1397243 76.1759504,15.0037888 76.6373368,13.9276393 C77.5991498,11.6663187 79.2459442,10.0731954 81.4747951,9.0251806 C85.4036773,7.18587938 90.2446848,8.05453598 93.2472452,11.1634122 C96.5940708,14.6345218 96.4769496,20.1313245 92.9846099,23.4723114 C90.9296661,25.4452521 88.441729,26.2928077 85.6130757,26.2611563 C84.4418642,26.2506058 83.3096931,26.0255288 82.205915,25.6492281 C81.9361815,25.5577906 81.8226095,25.4417353 81.8226095,25.1322544 C81.8439042,23.254268 81.8332568,21.3727649 81.8332568,19.4912617 C81.8332568,19.3927905 81.8332568,19.2943193 81.8332568,19.1958481" id="Fill-4" fill="#450073"></path>
                            <path d="M31.2163354,15.2060064 C31.6244849,14.7312346 32.0361835,14.2599796 32.4443329,13.7852077 C33.8249428,12.181534 35.2020036,10.5778603 36.5826135,8.97770341 C36.6748908,8.86868173 36.7529716,8.76669371 36.9304278,8.76669371 C38.9427821,8.77372737 40.9551364,8.77021054 42.9887855,8.77021054 C42.9568433,8.92495099 42.8432713,9.00583804 42.7651906,9.1007924 C40.8628592,11.3410121 38.9605278,13.5812317 37.0439999,15.8109009 C36.8700927,16.0183937 36.8913875,16.1274154 37.0404507,16.320841 C39.3260877,19.3488302 41.6010773,22.3803362 43.879616,25.4118422 C43.9541477,25.5067966 44.0215811,25.6052678 44.0996618,25.7107726 C43.9896389,25.784626 43.8831652,25.7494577 43.7873388,25.7494577 C41.7749845,25.7529746 39.7626302,25.7494577 37.7502759,25.7564914 C37.5302301,25.7600082 37.3989124,25.6931885 37.2640457,25.5173471 C35.326223,22.9395119 33.3813021,20.3687104 31.4363812,17.794392 C31.3618496,17.6994377 31.2873179,17.6009665 31.1985898,17.4849112 C31.1134108,17.6044833 31.148902,17.7170218 31.148902,17.8190098 C31.1453529,20.3581599 31.1418038,22.89731 31.1524511,25.43646 C31.1524511,25.6861548 31.0956651,25.7600082 30.8330298,25.7600082 C29.2536689,25.7459409 27.6778571,25.7459409 26.1020452,25.7564914 C25.8500573,25.7600082 25.7719765,25.703739 25.7719765,25.4434937 C25.7826239,17.794392 25.7790748,10.1488072 25.7755257,2.50322245 C25.7755257,2.26407813 25.8252134,2.19022473 26.0842996,2.2113257 C28.5580402,2.40826809 30.4248804,3.96270621 31.0140352,6.33656533 C31.1240581,6.79023619 31.1453529,7.2509407 31.1453529,7.71516204 C31.148902,10.0890212 31.1453529,12.4628803 31.1453529,14.8367394 L31.1453529,15.1673213 C31.1701968,15.1813886 31.1914915,15.1919391 31.2163354,15.2060064" id="Fill-6" fill="#450073"></path>
                            <path d="M65.1697566,26.3110952 C62.1352541,26.1880062 59.2888552,24.9606331 57.304894,22.1753051 C54.6465988,18.4404334 55.3173835,13.4852223 58.802625,10.4924014 C62.4546754,7.35890733 68.1368257,7.22175103 71.898899,10.1829205 C76.7895942,14.0268139 76.4488782,21.2468624 71.2139177,24.6265344 C69.4854935,25.741369 67.579613,26.2864774 65.1697566,26.3110952 Z M61.0509962,17.2503387 C61.0403488,17.4789325 61.0793892,17.7919303 61.1574699,18.1014112 C61.7643704,20.5596742 64.3836252,22.0332252 66.8360711,21.3017249 C69.0507256,20.6370444 70.4100407,18.3933079 69.9060649,16.2339753 C69.3878925,14.0218903 66.9389958,12.4780027 64.6923992,12.9457408 C62.5771202,13.3853444 61.0403488,15.1648595 61.0509962,17.2503387 Z" id="Combined-Shape" fill="#450073"></path>
                            <path d="M111.463133,14.6876259 C111.43474,16.0591889 111.512821,17.7437497 111.424093,19.4283105 C111.367307,20.564246 111.140163,21.6650133 110.632638,22.695444 C109.915714,24.1478941 108.758699,25.1150219 107.246772,25.6530966 C104.836915,26.5182364 102.430608,26.4760345 100.073989,25.4526374 C98.3988012,24.724654 97.3269652,23.4515621 96.7768507,21.7353499 C96.4467821,20.7049192 96.3403083,19.6463538 96.3403083,18.5737212 C96.3438574,15.3980252 96.3438574,12.2223292 96.3367592,9.04663325 C96.3367592,8.81452258 96.3864469,8.73363553 96.6384348,8.73715235 C98.2284432,8.74770284 99.8149024,8.74770284 101.401362,8.73715235 C101.646251,8.73363553 101.706586,8.80397209 101.706586,9.04311642 C101.699488,12.2082619 101.703037,15.3734074 101.699488,18.5385529 C101.699488,19.1082791 101.742078,19.6674548 101.947927,20.2055295 C102.228308,20.933513 102.753578,21.3625661 103.545034,21.4329026 C105.081805,21.5665421 105.961988,20.8209745 106.057815,19.2700532 C106.15719,17.5960429 106.082658,15.9185158 106.096855,14.2445055 C106.103953,13.5411399 106.192681,12.8553583 106.437571,12.1906778 C107.175789,10.2142203 109.117161,8.83210672 111.243087,8.7547365 C111.509272,8.74770284 111.463133,8.8918928 111.463133,9.03959959 C111.463133,10.8155979 111.463133,12.595113 111.463133,14.6876259" id="Fill-10" fill="#450073"></path>
                            <path d="M119.473155,8.08864921 C121.577786,8.10623335 123.416234,8.82718316 125.020438,10.1565443 C125.357605,10.4378905 125.637986,10.7684724 125.808344,11.1764245 C126.053234,11.7496675 125.971604,12.2209225 125.513767,12.6323914 C124.725861,13.3357571 123.799539,13.7718438 122.745449,13.9195506 C122.340849,13.9758198 122.291161,13.9301011 122.188236,13.5291826 C122.142097,13.3463076 122.01078,13.2232186 121.865266,13.1282642 C120.867961,12.4671005 119.785478,12.2349898 118.610717,12.5374371 C118.252256,12.6288746 117.957678,12.8152665 117.879597,13.2091513 C117.790869,13.6417211 117.943482,13.9969208 118.291296,14.2677166 C118.582324,14.4963104 118.919491,14.6193994 119.274404,14.710837 C120.335592,14.9781159 121.407428,15.2207771 122.461519,15.5197075 C123.643378,15.8538062 124.676173,16.451667 125.3789,17.4891313 C125.904171,18.2628336 126.02839,19.1631416 126.085176,20.0704833 C126.27328,22.9753835 124.569699,25.1417498 121.659416,25.915452 C118.245157,26.8227937 115.097083,26.2073488 112.26843,24.0761508 C112.176152,24.0058142 112.115817,23.9460282 112.169054,23.8229392 C112.584302,22.8171263 112.985353,21.8007629 113.656138,20.9250726 C113.705826,20.8582529 113.762612,20.7984668 113.819398,20.7386807 C114.263038,20.2920435 114.550518,20.281493 115.008355,20.7070293 C115.931127,21.5686522 117.0562,21.9168182 118.291296,21.9766043 C118.92659,22.0082558 119.558334,21.9977053 120.168784,21.7902124 C120.608875,21.6425056 120.960239,21.389294 121.07736,20.9074885 C121.183834,20.4819523 121.073811,20.1619209 120.718898,19.9087092 C120.381731,19.6695649 119.991327,19.5605432 119.600923,19.462072 C118.607168,19.2123772 117.609864,18.9802666 116.623207,18.7059539 C115.39166,18.3648216 114.348217,17.721242 113.609999,16.6626767 C113.162809,16.0190971 113.003099,15.2735295 112.932116,14.5103777 C112.790151,12.9840742 112.978255,11.535141 114.0146,10.3042511 C114.937372,9.20700062 116.151173,8.6091398 117.528234,8.29614208 C118.167077,8.15195212 118.816567,8.08161555 119.473155,8.08864921" id="Fill-12" fill="#450073"></path>
                            <path d="M55.1590925,20.6444297 C55.0384223,21.5623219 54.8290238,22.4239449 54.4705621,23.2433659 C54.3321462,23.5563636 54.1688865,23.8517772 53.9736845,24.1296066 C53.3703332,24.9806791 52.5646816,25.4765519 51.4999439,25.515237 C49.5159826,25.5890904 47.8195005,25.0052969 46.648289,23.3172193 C45.9739551,22.3430578 45.6935742,21.2282232 45.6225917,20.0676699 C45.491274,17.9224046 45.5871004,15.7736225 45.5729039,13.6248404 C45.5693548,13.3434941 45.4948232,13.2731575 45.2179914,13.2766744 C44.2526292,13.2942585 43.287267,13.2801912 42.3254539,13.2872249 C42.1196046,13.2907417 42.0237782,13.2766744 42.0947607,13.0234627 C42.4674189,11.6694838 42.8258806,10.3119881 43.1772441,8.95097552 C43.2233827,8.7751341 43.2908161,8.72238168 43.4682724,8.7258985 C44.050329,8.73644899 44.6323856,8.71534802 45.2108931,8.73293216 C45.4806267,8.74348265 45.5764531,8.68721339 45.5729039,8.39179981 C45.5587074,6.4294096 45.5693548,4.46701939 45.5587074,2.50462918 C45.5587074,2.25141754 45.6083952,2.17756415 45.8781287,2.19163146 C48.5932099,2.35340556 50.82561,4.61120935 50.9072399,7.30509986 C50.9178873,7.6954678 50.9249855,8.08935258 50.9072399,8.47620369 C50.9001417,8.68017974 50.9640259,8.73644899 51.1663261,8.73293216 C52.1742778,8.72238168 53.1786804,8.73644899 54.183083,8.72238168 C54.4421691,8.71886485 54.4634639,8.78216776 54.4031288,9.0107616 C54.0375688,10.3577069 53.6862054,11.7046521 53.3419402,13.058631 C53.2958015,13.2520566 53.2035243,13.2907417 53.0225188,13.2872249 C52.433364,13.2801912 51.84066,13.2977753 51.2515051,13.2801912 C50.9888698,13.2696407 50.9036908,13.3223931 50.9072399,13.6072562 C50.9214364,15.2074131 50.9143382,16.8110868 50.9143382,18.4147606 C50.9143382,19.9199631 51.6703019,20.7147663 53.1893278,20.8097207 C53.8388178,20.8519226 54.4918569,20.8765404 55.1590925,20.6444297" id="Fill-14" fill="#450073"></path>
                        </g>
                    </g>
                </g>
                <g id="PurpleLogo" stroke-width="1" fill-rule="evenodd" transform="translate(75.984438, 24.875061)"></g>
            </g>
        </g>
    </g>
</svg>