<?xml version="1.0" encoding="UTF-8"?>
<svg width="100px" height="25px" viewBox="0 0 100 25" version="1.1" xmlns="http://www.w3.org/2000/svg" xmlns:xlink="http://www.w3.org/1999/xlink">
    <!-- Generator: Sketch 46.2 (44496) - http://www.bohemiancoding.com/sketch -->
    <title>OktopusFullLogo</title>
    <desc>Created with Sketch.</desc>
    <defs>
        <polygon id="path-1" points="19.6767738 0.80183686 98.7297998 0.80183686 98.7297998 25.321164 0 25.321164 0 0.80183686 19.6767738 0.80183686 0.000230815823 0.801188531 0.000230815823 20.5320892 19.6767738 20.5320892"></polygon>
    </defs>
    <g id="UI" stroke="none" stroke-width="1" fill="none" fill-rule="evenodd">
        <g id="Login" transform="translate(-30.000000, -10.000000)">
            <g id="Logo/OktopusFullLogo" transform="translate(28.000000, 6.142857)">
                <g id="Group-3" transform="translate(0.813366, 1.003194)">
                    <g id="Logo/OktopusLogoText" transform="translate(0.654539, 0.791288)">
                        <g id="Page-1" transform="translate(1.187530, 0.925337)">
                            <g id="Group-3" transform="translate(0.000000, 0.508348)">
                                <path d="M19.6767685,10.6793416 C19.671211,16.1346457 15.2835286,20.5320878 9.84269136,20.5320878 C4.39907532,20.5349013 -0.0163947599,16.1065111 0.000277877286,10.6624608 C0.0169505145,5.19590285 4.43242059,0.778766466 9.859364,0.801274167 C15.2974225,0.820968406 19.6823261,5.23247787 19.6767685,10.6793416 Z M9.90132347,5.09630627 C9.61788863,5.11881398 9.39002926,5.11881398 9.16494866,5.15257553 C6.66683185,5.53520645 4.64388521,7.87600739 4.57441589,10.4362584 C4.52995552,12.0258648 5.06625868,13.3932077 6.1194136,14.5354735 C7.55048162,16.0856914 9.31222362,16.6596378 11.3351703,16.004101 C14.4918562,14.9828141 16.0285176,11.1621318 14.5057501,8.18548828 C13.5331796,6.28358752 11.9937394,5.20603132 9.90132347,5.09630627 Z" id="Combined-Shape" fill="#450073"></path>
                                <mask id="mask-2" fill="white">
                                    <use xlink:href="#path-1"></use>
                                </mask>
                                <g id="Clip-2"></g>
                            </g>
                            <path d="M64.0709995,15.3566785 C64.7073385,16.2766808 65.5048463,16.9209637 66.5913465,17.1150927 C67.9473877,17.354237 69.0727907,16.8843887 69.9564405,15.8405941 C70.7789572,14.8699495 70.9317897,13.7501913 70.5038587,12.5629101 C69.987007,11.139298 68.4531243,10.1770937 66.9609233,10.3008861 C65.3853591,10.4331188 64.0626632,11.5978924 63.7653345,13.1227892 C63.7014227,13.4632181 63.6958652,13.8064606 63.6958652,14.1553299 C63.698644,16.9153368 63.7125378,19.6781572 63.6847501,22.4409775 C63.6708562,24.0868532 62.3231514,25.5582941 60.7114631,25.7833711 C60.3641165,25.8340135 60.0167699,25.8171327 59.6666445,25.8283866 C59.5527149,25.8340135 59.4999182,25.7974385 59.513812,25.6764596 C59.5193696,25.6286307 59.513812,25.5779884 59.513812,25.5301595 C59.513812,21.6307003 59.513812,17.7340545 59.513812,13.8374087 C59.5165908,12.9117795 59.6416356,12.003031 60.0028761,11.1421114 C60.7559235,9.33305494 62.0452741,8.05855635 63.7903435,7.22014448 C66.866445,5.7487035 70.6566912,6.44362878 73.0075331,8.93072978 C75.6279159,11.7076174 75.5362164,16.1050596 72.8019039,18.7778491 C71.1929944,20.3562017 69.2450746,21.0342462 67.0303926,21.008925 C66.1133976,21.0004846 65.226969,20.820423 64.3627707,20.5193825 C64.1515839,20.4462325 64.0626632,20.3533882 64.0626632,20.1058035 C64.0793359,18.6034144 64.0709995,17.0982119 64.0709995,15.5930094 C64.0709995,15.5142324 64.0709995,15.4354555 64.0709995,15.3566785" id="Fill-4" fill="#450073"></path>
                            <path d="M24.4406967,12.1648051 C24.7602556,11.7849877 25.0825932,11.4079837 25.4021521,11.0281662 C26.4830948,9.74522722 27.5612586,8.46228824 28.6422013,7.18216273 C28.7144494,7.09494539 28.7755824,7.01335497 28.914521,7.01335497 C30.4900852,7.0189819 32.0656495,7.01616843 33.6578863,7.01616843 C33.6328773,7.13996079 33.5439566,7.20467043 33.4828236,7.28063392 C31.9934014,9.07280964 30.5039791,10.8649854 29.0034418,12.6487207 C28.8672819,12.814715 28.8839545,12.9019323 29.000663,13.0566728 C30.7901927,15.4790641 32.5713861,17.904269 34.3553583,20.3294738 C34.4137125,20.4054373 34.4665092,20.4842142 34.5276422,20.5686181 C34.4415003,20.6277008 34.3581371,20.5995662 34.2831102,20.5995662 C32.707546,20.6023796 31.1319818,20.5995662 29.5564176,20.6051931 C29.3841336,20.6080066 29.281319,20.5545508 29.1757257,20.4138777 C27.6585157,18.3516095 26.1357482,16.2949683 24.6129806,14.2355136 C24.5546264,14.1595501 24.4962722,14.0807732 24.4268029,13.9879289 C24.3601123,14.0835867 24.3879,14.1736175 24.3879,14.2552079 C24.3851213,16.2865279 24.3823425,18.317848 24.3906788,20.349168 C24.3906788,20.5489239 24.3462184,20.6080066 24.1405892,20.6080066 C22.9040353,20.5967527 21.6702602,20.5967527 20.436485,20.6051931 C20.2391921,20.6080066 20.1780591,20.5629912 20.1780591,20.3547949 C20.1863955,14.2355136 20.1836167,8.1190458 20.1808379,2.00257796 C20.1808379,1.8112625 20.2197407,1.75217978 20.4225912,1.76906056 C22.3593958,1.92661447 23.8210304,3.17016497 24.2823067,5.06925227 C24.3684486,5.43218895 24.3851213,5.80075256 24.3851213,6.17212963 C24.3879,8.07121693 24.3851213,9.97030423 24.3851213,11.8693915 L24.3851213,12.133857 C24.4045727,12.1451109 24.4212453,12.1535513 24.4406967,12.1648051" id="Fill-6" fill="#450073"></path>
                            <path d="M51.0243831,21.0488762 C48.6485323,20.950405 46.4199564,19.9685065 44.8666224,17.7402441 C42.7853215,14.7523467 43.3105096,10.7881778 46.0392646,8.3939211 C48.8986218,5.88712586 53.3474372,5.77740082 56.2929364,8.14633639 C60.1220854,11.2214511 59.8553232,16.9974899 55.7566333,19.7012276 C54.4033709,20.5930952 52.9111698,21.0291819 51.0243831,21.0488762 Z M47.7996172,13.800271 C47.7912808,13.983146 47.8218473,14.2335442 47.8829803,14.4811289 C48.3581505,16.4477393 50.4088849,17.6265802 52.3290169,17.04138 C54.0629712,16.5096355 55.1272412,14.7146463 54.7326555,12.9871802 C54.3269546,11.2175122 52.4096013,9.98240212 50.6506381,10.3565927 C48.9944895,10.7082755 47.7912808,12.1318876 47.7996172,13.800271 Z" id="Combined-Shape" fill="#450073"></path>
                            <path d="M87.2695848,11.7501007 C87.2473546,12.8473512 87.3084876,14.1949998 87.2390183,15.5426484 C87.1945579,16.4513968 87.0167165,17.3320106 86.6193519,18.1563552 C86.0580398,19.3183153 85.1521599,20.0920175 83.9684026,20.5224773 C82.0816158,21.2145891 80.1976078,21.1808276 78.3525027,20.3621099 C77.0409219,19.7797232 76.2017325,18.7612497 75.7710227,17.3882799 C75.5125968,16.5639353 75.4292336,15.7170831 75.4292336,14.858977 C75.4320124,12.3184202 75.4320124,9.77786339 75.4264548,7.2373066 C75.4264548,7.05161806 75.4653577,6.98690842 75.6626505,6.98972188 C76.9075408,6.99816227 78.1496522,6.99816227 79.3917637,6.98972188 C79.583499,6.98690842 79.6307382,7.04317767 79.6307382,7.23449314 C79.6251806,9.76660954 79.6279594,12.2987259 79.6251806,14.8308423 C79.6251806,15.2866233 79.6585259,15.7339639 79.8196947,16.1644236 C80.0392178,16.7468104 80.4504762,17.0900529 81.0701425,17.1463221 C82.2733512,17.2532337 82.9624868,16.6567796 83.0375137,15.4160426 C83.1153194,14.0768343 83.0569651,12.7348126 83.0680802,11.3956044 C83.0736378,10.8329119 83.1431071,10.2842867 83.3348424,9.75254222 C83.9128272,8.1713762 85.4328159,7.06568538 87.0973009,7.0037892 C87.3057088,6.99816227 87.2695848,7.11351424 87.2695848,7.23167967 C87.2695848,8.65247832 87.2695848,10.0760904 87.2695848,11.7501007" id="Fill-10" fill="#450073"></path>
                            <path d="M93.5409973,6.47091937 C95.1888096,6.48498668 96.6282139,7.06174653 97.8842192,8.12523542 C98.1482027,8.35031243 98.3677257,8.61477792 98.5011068,8.94113959 C98.6928421,9.399734 98.6289304,9.776738 98.2704687,10.1059131 C97.6535811,10.6686057 96.9283214,11.017475 96.1030258,11.1356405 C95.7862457,11.1806559 95.7473429,11.1440809 95.6667585,10.8233461 C95.6306345,10.6770461 95.5278199,10.5785749 95.4138902,10.5026114 C94.633055,9.97368039 93.7855293,9.78799185 92.8657555,10.0299496 C92.5850994,10.1030997 92.3544612,10.2522132 92.2933282,10.567321 C92.2238589,10.9133769 92.3433462,11.1975366 92.6156659,11.4141733 C92.8435253,11.5970483 93.1075087,11.6955195 93.385386,11.7686696 C94.2162391,11.9824927 95.0554285,12.1766217 95.880724,12.415766 C96.8060554,12.6830449 97.6146783,13.1613336 98.1648753,13.9913051 C98.5761337,14.6102669 98.6733907,15.3305133 98.7178511,16.0563867 C98.8651261,18.3803068 97.5313151,20.1133998 95.2527213,20.7323616 C92.5795418,21.458235 90.1147703,20.965879 87.9000883,19.2609206 C87.8278403,19.2046514 87.7806011,19.1568225 87.8222827,19.0583513 C88.1473991,18.253701 88.4614005,17.4406103 88.9865885,16.7400581 C89.0254914,16.6866023 89.0699517,16.6387734 89.1144121,16.5909446 C89.4617587,16.2336348 89.6868393,16.2251944 90.045301,16.5656234 C90.7677819,17.2549218 91.6486529,17.5334546 92.6156659,17.5812834 C93.1130662,17.6066046 93.6076878,17.5981642 94.0856367,17.4321699 C94.4302046,17.3140045 94.7053031,17.1114352 94.7970026,16.7259908 C94.8803658,16.3855618 94.7942238,16.1295367 94.5163465,15.9269674 C94.2523631,15.7356519 93.9466981,15.6484346 93.6410331,15.5696576 C92.8629767,15.3699018 92.0821415,15.1842132 91.3096426,14.9647632 C90.3454085,14.6918573 89.5284492,14.1769936 88.9504645,13.3301413 C88.6003391,12.8152777 88.4752943,12.2188236 88.4197189,11.6083022 C88.308568,10.3872594 88.4558429,9.22811278 89.2672446,8.24340085 C89.9897255,7.3656005 90.9400659,6.88731184 92.0182297,6.63691367 C92.5184088,6.5215617 93.0269243,6.46529244 93.5409973,6.47091937" id="Fill-12" fill="#450073"></path>
                            <path d="M43.1865763,16.5155438 C43.0920981,17.2498575 42.9281505,17.9391559 42.6474944,18.5946927 C42.5391223,18.8450909 42.4112987,19.0814217 42.2584662,19.3036853 C41.7860748,19.9845432 41.1552934,20.3812415 40.3216615,20.4121896 C38.7683275,20.4712723 37.440074,20.0042375 36.523079,18.6537754 C35.9951122,17.8744462 35.7755891,16.9825786 35.7200136,16.0541359 C35.617199,14.3379237 35.6922259,12.618898 35.6811108,10.8998723 C35.6783321,10.6747953 35.6199778,10.618526 35.4032335,10.6213395 C34.6474073,10.6354068 33.8915811,10.624153 33.1385337,10.6297799 C32.9773648,10.6325933 32.902338,10.6213395 32.9579134,10.4187702 C33.2496846,9.33558706 33.5303406,8.24959047 33.8054391,7.16078041 C33.8415632,7.02010728 33.8943599,6.97790534 34.0332985,6.9807188 C34.4890173,6.98915919 34.944736,6.97227842 35.397676,6.98634573 C35.6088627,6.99478612 35.6838896,6.94977071 35.6811108,6.71343985 C35.6699957,5.14352768 35.6783321,3.57361551 35.6699957,2.00370335 C35.6699957,1.80113403 35.7088986,1.74205132 35.9200853,1.75330517 C38.0458465,1.88272445 39.7936947,3.68896748 39.8576064,5.84407989 C39.8659428,6.15637424 39.8715003,6.47148206 39.8576064,6.78096295 C39.8520489,6.94414379 39.9020668,6.98915919 40.0604569,6.98634573 C40.8496284,6.97790534 41.6360211,6.98915919 42.4224138,6.97790534 C42.6252642,6.97509188 42.6419368,7.02573421 42.5946977,7.20860928 C42.3084841,8.28616548 42.0333856,9.36372168 41.7638446,10.4469048 C41.7277206,10.6016453 41.6554725,10.6325933 41.5137551,10.6297799 C41.0524788,10.624153 40.5884237,10.6382203 40.1271474,10.624153 C39.9215182,10.6157126 39.8548277,10.6579145 39.8576064,10.885805 C39.8687215,12.1659305 39.863164,13.4488695 39.863164,14.7318084 C39.863164,15.9359705 40.4550426,16.571813 41.6443574,16.6477765 C42.1528728,16.6815381 42.664167,16.7012323 43.1865763,16.5155438" id="Fill-14" fill="#450073"></path>
                        </g>
                    </g>
                </g>
            </g>
        </g>
    </g>
</svg>