<?xml version="1.0" encoding="UTF-8"?>
<svg width="61px" height="61px" viewBox="0 0 61 61" version="1.1" xmlns="http://www.w3.org/2000/svg" xmlns:xlink="http://www.w3.org/1999/xlink">
    <!-- Generator: Sketch 45.1 (43504) - http://www.bohemiancoding.com/sketch -->
    <title>btn-linkedin</title>
    <desc>Created with Sketch.</desc>
    <defs></defs>
    <g id="WEB" stroke="none" stroke-width="1" fill="none" fill-rule="evenodd">
        <g id="login" transform="translate(-654.000000, -411.000000)">
            <g id="btn-facebook" transform="translate(653.000000, 410.849237)">
                <g id="Group" transform="translate(0.139334, 0.951067)">
                    <g id="btn-linkedin" transform="translate(0.747303, 0.171698)">
                        <path d="M1.30436681,30 C1.30436681,46.0162586 14.2881082,59 30.3043668,59 C46.3206254,59 59.3043668,46.0162586 59.3043668,30 C59.3043668,13.9837414 46.3206254,1 30.3043668,1 C14.2881082,1 1.30436681,13.9837414 1.30436681,30 Z" id="LinkedIN" stroke="#1C97FB" stroke-width="2"></path>
                        <polygon id="Path" fill="#1C97FB" points="22.0698442 23.9308678 15.4976684 23.9308678 15.4976684 43.7163287 22.0698442 43.7163287"></polygon>
                        <path d="M22.5027042,17.8104266 C22.4600482,15.8704747 21.0754997,14.3928913 18.8271998,14.3928913 C16.5788998,14.3928913 15.1090393,15.8704747 15.1090393,17.8104266 C15.1090393,19.7101953 16.5354563,21.2303255 18.7418877,21.2303255 L18.7838875,21.2303255 C21.0754997,21.2303255 22.5027042,19.7101953 22.5027042,17.8104266 Z" id="Path" fill="#1C97FB"></path>
                        <path d="M45.7716243,32.3719501 C45.7716243,26.2947123 42.5293737,23.4662669 38.2045791,23.4662669 C34.7151861,23.4662669 33.152926,25.3866525 32.2806434,26.7338377 L32.2806434,23.9313931 L25.7076801,23.9313931 C25.7943046,25.7879584 25.7076801,43.716854 25.7076801,43.716854 L32.2806434,43.716854 L32.2806434,32.6670203 C32.2806434,32.0756981 32.3232994,31.4858203 32.4970734,31.062453 C32.9720645,29.8811217 34.0535585,28.6580315 35.8692609,28.6580315 C38.2484163,28.6580315 39.1994485,30.4723126 39.1994485,33.131096 L39.1994485,43.7163287 L45.7713618,43.7163287 L45.7716243,32.3719501 Z" id="Path" fill="#1C97FB"></path>
                    </g>
                </g>
            </g>
        </g>
    </g>
</svg>