<?xml version="1.0" encoding="UTF-8"?>
<svg width="61px" height="61px" viewBox="0 0 61 61" version="1.1" xmlns="http://www.w3.org/2000/svg" xmlns:xlink="http://www.w3.org/1999/xlink">
    <!-- Generator: Sketch 45.1 (43504) - http://www.bohemiancoding.com/sketch -->
    <title>btn-facebook</title>
    <desc>Created with Sketch.</desc>
    <defs></defs>
    <g id="WEB" stroke="none" stroke-width="1" fill="none" fill-rule="evenodd">
        <g id="login" transform="translate(-724.000000, -411.000000)">
            <g id="btn-facebook" transform="translate(653.000000, 410.849237)">
                <g id="Group" transform="translate(0.139334, 0.951067)">
                    <g id="btn-facebook" transform="translate(71.000000, 0.000000)">
                        <path d="M1.05166986,30.1716982 C1.05166986,46.1879568 14.0354113,59.1716982 30.0516699,59.1716982 C46.0679284,59.1716982 59.0516699,46.1879568 59.0516699,30.1716982 C59.0516699,14.1554396 46.0679284,1.17169821 30.0516699,1.17169821 C14.0354113,1.17169821 1.05166986,14.1554396 1.05166986,30.1716982 Z" id="LinkedIN" stroke="#1752C8" stroke-width="2"></path>
                        <path d="M32.3519027,45.1437561 L32.3519027,30.1699451 L36.4772235,30.1699451 L37.0239176,25.0098869 L32.3519027,25.0098869 L32.3589116,22.4272281 C32.3589116,21.0814054 32.486532,20.3602829 34.4157312,20.3602829 L36.9947138,20.3602829 L36.9947138,15.1996403 L32.868809,15.1996403 C27.9129337,15.1996403 26.1685941,17.7028237 26.1685941,21.912391 L26.1685941,25.0104712 L23.0794222,25.0104712 L23.0794222,30.1705295 L26.1685941,30.1705295 L26.1685941,45.1437561 L32.3519027,45.1437561 Z" id="Path" fill="#1752C8"></path>
                    </g>
                </g>
            </g>
        </g>
    </g>
</svg>