<?xml version="1.0" encoding="UTF-8"?>
<svg width="31px" height="30px" viewBox="0 0 31 30" version="1.1" xmlns="http://www.w3.org/2000/svg" xmlns:xlink="http://www.w3.org/1999/xlink">
    <!-- Generator: Sketch 46.2 (44496) - http://www.bohemiancoding.com/sketch -->
    <title>Group</title>
    <desc>Created with Sketch.</desc>
    <defs></defs>
    <g id="Symbols" stroke="none" stroke-width="1" fill="none" fill-rule="evenodd">
        <g id="UI/Login/LI" transform="translate(-15.000000, -14.000000)" fill="#FFFFFF">
            <g id="Group" transform="translate(15.000000, 14.000000)">
                <polygon id="Path" points="7.06984416 9.93086781 0.497668353 9.93086781 0.497668353 29.7163287 7.06984416 29.7163287"></polygon>
                <path d="M7.50270424,3.81042656 C7.46004823,1.87047465 6.07549971,0.392891297 3.82719976,0.392891297 C1.57889982,0.392891297 0.109039272,1.87047465 0.109039272,3.81042656 C0.109039272,5.71019535 1.53545631,7.23032554 3.74188774,7.23032554 L3.7838875,7.23032554 C6.07549971,7.23032554 7.50270424,5.71019535 7.50270424,3.81042656 Z" id="Path"></path>
                <path d="M30.7716243,18.3719501 C30.7716243,12.2947123 27.5293737,9.46626686 23.2045791,9.46626686 C19.7151861,9.46626686 18.152926,11.3866525 17.2806434,12.7338377 L17.2806434,9.93139308 L10.7076801,9.93139308 C10.7943046,11.7879584 10.7076801,29.716854 10.7076801,29.716854 L17.2806434,29.716854 L17.2806434,18.6670203 C17.2806434,18.0756981 17.3232994,17.4858203 17.4970734,17.062453 C17.9720645,15.8811217 19.0535585,14.6580315 20.8692609,14.6580315 C23.2484163,14.6580315 24.1994485,16.4723126 24.1994485,19.131096 L24.1994485,29.7163287 L30.7713618,29.7163287 L30.7716243,18.3719501 Z" id="Path"></path>
            </g>
        </g>
    </g>
</svg>